<svg width="806" height="806" viewBox="0 0 806 806" fill="none" xmlns="http://www.w3.org/2000/svg">
<g clip-path="url(#clip0_102_2)">
<circle cx="402.45" cy="403.55" r="403.355" fill="#071D49"/>
<mask id="mask0_102_2" style="mask-type:luminance" maskUnits="userSpaceOnUse" x="206" y="206" width="394" height="394">
<path d="M600 206H206V600H600V206Z" fill="white"/>
</mask>
<g mask="url(#mask0_102_2)">
<path d="M305.911 430.752C273.862 430.752 248.222 405.896 248.222 375.685C248.222 345.475 274.262 320.619 305.911 320.619C337.56 320.619 363.601 345.475 363.601 375.685C363.601 405.896 337.56 430.752 305.911 430.752ZM305.911 337.444C283.877 337.444 265.85 354.653 265.85 375.685C265.85 396.717 283.877 413.926 305.911 413.926C327.945 413.926 345.973 396.717 345.973 375.685C345.973 354.653 327.945 337.444 305.911 337.444Z" fill="white" stroke="white" stroke-width="0.5"/>
<path d="M424.661 528.004V440.674H443.65V483.104L496.729 430.376H576.133V227.295H315.912V290.571H296.924V209.582H595.122V448.502H504.496L424.661 528.004Z" fill="white" stroke="white" stroke-width="0.5"/>
<path d="M229.604 595.147L254.202 490.518C256.359 480.631 265.422 473.628 276.211 473.628H336.627C347.415 473.628 356.478 480.631 358.635 490.518L383.234 595.147H402.653L376.761 486.811C372.445 468.685 355.615 455.916 336.195 455.916H275.779C256.359 455.916 239.529 468.685 235.214 486.811L209.753 595.559H229.604V595.147Z" fill="white" stroke="white" stroke-width="0.5"/>
</g>
</g>
<defs>
<clipPath id="clip0_102_2">
<rect width="806" height="806" fill="white"/>
</clipPath>
</defs>
</svg>
