<svg width="430" height="44" viewBox="0 0 430 44" fill="none" xmlns="http://www.w3.org/2000/svg">
<path fill-rule="evenodd" clip-rule="evenodd" d="M44 22C44 34.1503 34.1503 44 22 44C9.84974 44 0 34.1503 0 22C0 9.84974 9.84974 0 22 0C34.1503 0 44 9.84974 44 22ZM30.8004 28.241C30.9788 29.294 31.6035 29.7758 32.5852 29.7758H33.5668C33.5668 29.7758 32.3175 23.0474 31.782 20.2096C31.1395 16.8187 28.4979 14.0345 23.7146 14.0345H18.8064C12.506 14.0345 10.2393 18.1394 10.2393 21.9052C10.2393 25.2426 12.1312 29.7758 18.8064 29.7758H23.7146C27.9803 29.7758 29.9436 27.5092 30.4791 26.5276L30.8004 28.241ZM18.967 16.2297H23.1613C28.2302 16.2297 29.5153 19.6207 29.5153 21.9052C29.5153 24.4573 28.0874 27.5806 23.1613 27.5806H18.967C14.2551 27.5806 12.6488 24.5823 12.6488 21.9052C12.6488 19.228 14.2551 16.2297 18.967 16.2297Z" fill="#071D49"/>
<path d="M69.44 10.4H77.76L86.4 36H81.92L74.68 14.6H72.44L65.2 36H60.84L69.44 10.4ZM67.68 25.2H79.56L80.56 29H66.68L67.68 25.2ZM100.467 36.56C99.5599 36.56 98.7332 36.44 97.9866 36.2C97.2399 35.9867 96.5732 35.68 95.9866 35.28C95.3999 34.88 94.8666 34.4267 94.3866 33.92L94.2266 33.68V36H90.1466V9.6H94.3466V19.44C95.0132 18.56 95.8799 17.84 96.9466 17.28C98.0132 16.72 99.2399 16.44 100.627 16.44C102.44 16.44 104.053 16.8667 105.467 17.72C106.88 18.5467 107.973 19.7333 108.747 21.28C109.547 22.8 109.947 24.5333 109.947 26.48C109.947 28.4533 109.547 30.2133 108.747 31.76C107.947 33.28 106.827 34.4667 105.387 35.32C103.947 36.1467 102.307 36.56 100.467 36.56ZM101.027 32.8C101.907 32.8 102.693 32.52 103.387 31.96C104.107 31.4 104.68 30.64 105.107 29.68C105.533 28.6933 105.747 27.6267 105.747 26.48C105.747 25.3333 105.533 24.28 105.107 23.32C104.68 22.36 104.107 21.6 103.387 21.04C102.693 20.48 101.907 20.2 101.027 20.2H98.5066C97.7332 20.2 97.0266 20.4133 96.3866 20.84C95.7466 21.24 95.2399 21.7867 94.8666 22.48C94.5199 23.1733 94.3466 23.9467 94.3466 24.8V28.12C94.3466 28.9733 94.5199 29.76 94.8666 30.48C95.2132 31.1733 95.7066 31.7333 96.3466 32.16C96.9866 32.5867 97.7066 32.8 98.5066 32.8H101.027ZM124.998 36.56C124.091 36.56 123.264 36.44 122.518 36.2C121.771 35.9867 121.104 35.68 120.518 35.28C119.931 34.88 119.398 34.4267 118.918 33.92L118.758 33.68V36H114.678V9.6H118.878V19.44C119.544 18.56 120.411 17.84 121.478 17.28C122.544 16.72 123.771 16.44 125.158 16.44C126.971 16.44 128.584 16.8667 129.998 17.72C131.411 18.5467 132.504 19.7333 133.278 21.28C134.078 22.8 134.478 24.5333 134.478 26.48C134.478 28.4533 134.078 30.2133 133.278 31.76C132.478 33.28 131.358 34.4667 129.918 35.32C128.478 36.1467 126.838 36.56 124.998 36.56ZM125.558 32.8C126.438 32.8 127.224 32.52 127.918 31.96C128.638 31.4 129.211 30.64 129.638 29.68C130.064 28.6933 130.278 27.6267 130.278 26.48C130.278 25.3333 130.064 24.28 129.638 23.32C129.211 22.36 128.638 21.6 127.918 21.04C127.224 20.48 126.438 20.2 125.558 20.2H123.038C122.264 20.2 121.558 20.4133 120.918 20.84C120.278 21.24 119.771 21.7867 119.398 22.48C119.051 23.1733 118.878 23.9467 118.878 24.8V28.12C118.878 28.9733 119.051 29.76 119.398 30.48C119.744 31.1733 120.238 31.7333 120.878 32.16C121.518 32.5867 122.238 32.8 123.038 32.8H125.558ZM135.41 10.4H140.01L147.77 31.72H148.41L156.13 10.4H160.61L151.33 36H144.73L135.41 10.4ZM164.845 20.8H162.405V17H169.085V36H164.845V20.8ZM164.325 9.6H169.165V14.04H164.325V9.6ZM183.595 36.56C181.542 36.56 179.768 36.1333 178.275 35.28C176.782 34.4267 175.635 33.24 174.835 31.72C174.062 30.2 173.675 28.4667 173.675 26.52C173.675 24.4933 174.088 22.72 174.915 21.2C175.768 19.68 176.955 18.5067 178.475 17.68C179.995 16.8533 181.742 16.44 183.715 16.44C185.608 16.44 187.262 16.8267 188.675 17.6C190.088 18.3467 191.182 19.4933 191.955 21.04C192.728 22.5867 193.115 24.48 193.115 26.72V27.68H177.235V24.48H188.875C188.795 23.6 188.555 22.8267 188.155 22.16C187.755 21.4933 187.248 20.9867 186.635 20.64C186.048 20.2933 185.422 20.12 184.755 20.12H182.555C181.648 20.12 180.835 20.4 180.115 20.96C179.395 21.52 178.822 22.28 178.395 23.24C177.995 24.2 177.795 25.2933 177.795 26.52C177.795 27.6933 177.995 28.7733 178.395 29.76C178.822 30.72 179.422 31.48 180.195 32.04C180.968 32.6 181.862 32.88 182.875 32.88H184.595C185.262 32.88 185.875 32.7467 186.435 32.48C186.995 32.2133 187.448 31.8533 187.795 31.4C188.168 30.9467 188.435 30.44 188.595 29.88H192.755C192.568 31.1867 192.088 32.3467 191.315 33.36C190.568 34.3467 189.542 35.1333 188.235 35.72C186.928 36.28 185.382 36.56 183.595 36.56ZM205.672 32.12H210.712V14.28H205.672V10.4H220.112V14.28H215.032V32.12H220.112V36H205.672V32.12ZM225.029 17H229.109V19.8C229.749 18.68 230.589 17.84 231.629 17.28C232.669 16.72 233.963 16.44 235.509 16.44C237.083 16.44 238.429 16.7333 239.549 17.32C240.669 17.9067 241.523 18.76 242.109 19.88C242.696 21 242.989 22.3867 242.989 24.04V36H238.789V24.76C238.789 23.8533 238.643 23.0667 238.349 22.4C238.056 21.7333 237.656 21.2267 237.149 20.88C236.643 20.5333 236.056 20.36 235.389 20.36H233.069C232.376 20.36 231.736 20.5467 231.149 20.92C230.563 21.2933 230.096 21.8133 229.749 22.48C229.403 23.1467 229.229 23.9067 229.229 24.76V36H225.029V17ZM255.227 36C253.68 36 252.494 35.6133 251.667 34.84C250.84 34.0667 250.427 32.9733 250.427 31.56V11.68H254.667V30.36C254.667 31 254.787 31.4667 255.027 31.76C255.294 32.0533 255.76 32.2 256.427 32.2H259.787V36H255.227ZM246.747 17H259.627V20.68H246.747V17ZM272.775 36.56C270.721 36.56 268.948 36.1333 267.455 35.28C265.961 34.4267 264.815 33.24 264.015 31.72C263.241 30.2 262.855 28.4667 262.855 26.52C262.855 24.4933 263.268 22.72 264.095 21.2C264.948 19.68 266.135 18.5067 267.655 17.68C269.175 16.8533 270.921 16.44 272.895 16.44C274.788 16.44 276.441 16.8267 277.855 17.6C279.268 18.3467 280.361 19.4933 281.135 21.04C281.908 22.5867 282.295 24.48 282.295 26.72V27.68H266.415V24.48H278.055C277.975 23.6 277.735 22.8267 277.335 22.16C276.935 21.4933 276.428 20.9867 275.815 20.64C275.228 20.2933 274.601 20.12 273.935 20.12H271.735C270.828 20.12 270.015 20.4 269.295 20.96C268.575 21.52 268.001 22.28 267.575 23.24C267.175 24.2 266.975 25.2933 266.975 26.52C266.975 27.6933 267.175 28.7733 267.575 29.76C268.001 30.72 268.601 31.48 269.375 32.04C270.148 32.6 271.041 32.88 272.055 32.88H273.775C274.441 32.88 275.055 32.7467 275.615 32.48C276.175 32.2133 276.628 31.8533 276.975 31.4C277.348 30.9467 277.615 30.44 277.775 29.88H281.935C281.748 31.1867 281.268 32.3467 280.495 33.36C279.748 34.3467 278.721 35.1333 277.415 35.72C276.108 36.28 274.561 36.56 272.775 36.56ZM287.184 13.44H284.784V9.6H291.424V36H287.184V13.44ZM297.536 13.44H295.136V9.6H301.776V36H297.536V13.44ZM308.088 20.8H305.648V17H312.328V36H308.088V20.8ZM307.568 9.6H312.408V14.04H307.568V9.6ZM318.637 39.12H331.117C331.544 39.12 331.851 39.0267 332.037 38.84C332.251 38.6533 332.357 38.3467 332.357 37.92V33.28C332.171 33.5733 331.944 33.8667 331.677 34.16C331.037 34.8533 330.251 35.3867 329.317 35.76C328.411 36.1333 327.344 36.32 326.117 36.32C324.304 36.32 322.704 35.9067 321.317 35.08C319.931 34.2533 318.851 33.0933 318.077 31.6C317.304 30.08 316.917 28.3467 316.917 26.4C316.917 24.4533 317.304 22.7333 318.077 21.24C318.851 19.72 319.931 18.5467 321.317 17.72C322.704 16.8667 324.304 16.44 326.117 16.44C327.051 16.44 327.917 16.56 328.717 16.8C329.517 17.04 330.237 17.3867 330.877 17.84C331.517 18.2667 332.037 18.8 332.437 19.44V17H336.517V38.72C336.517 40.08 336.171 41.0933 335.477 41.76C334.811 42.4533 333.811 42.8 332.477 42.8H318.637V39.12ZM328.237 32.6C328.984 32.6 329.664 32.4 330.277 32C330.917 31.6 331.411 31.0533 331.757 30.36C332.131 29.6667 332.317 28.88 332.317 28V24.88C332.317 24.0267 332.144 23.2533 331.797 22.56C331.451 21.84 330.957 21.2667 330.317 20.84C329.704 20.4133 329.011 20.2 328.237 20.2H325.837C324.984 20.2 324.197 20.48 323.477 21.04C322.757 21.6 322.184 22.36 321.757 23.32C321.331 24.2533 321.117 25.28 321.117 26.4C321.117 27.52 321.331 28.56 321.757 29.52C322.184 30.4533 322.757 31.2 323.477 31.76C324.197 32.32 324.984 32.6 325.837 32.6H328.237ZM351.134 36.56C349.081 36.56 347.307 36.1333 345.814 35.28C344.321 34.4267 343.174 33.24 342.374 31.72C341.601 30.2 341.214 28.4667 341.214 26.52C341.214 24.4933 341.627 22.72 342.454 21.2C343.307 19.68 344.494 18.5067 346.014 17.68C347.534 16.8533 349.281 16.44 351.254 16.44C353.147 16.44 354.801 16.8267 356.214 17.6C357.627 18.3467 358.721 19.4933 359.494 21.04C360.267 22.5867 360.654 24.48 360.654 26.72V27.68H344.774V24.48H356.414C356.334 23.6 356.094 22.8267 355.694 22.16C355.294 21.4933 354.787 20.9867 354.174 20.64C353.587 20.2933 352.961 20.12 352.294 20.12H350.094C349.187 20.12 348.374 20.4 347.654 20.96C346.934 21.52 346.361 22.28 345.934 23.24C345.534 24.2 345.334 25.2933 345.334 26.52C345.334 27.6933 345.534 28.7733 345.934 29.76C346.361 30.72 346.961 31.48 347.734 32.04C348.507 32.6 349.401 32.88 350.414 32.88H352.134C352.801 32.88 353.414 32.7467 353.974 32.48C354.534 32.2133 354.987 31.8533 355.334 31.4C355.707 30.9467 355.974 30.44 356.134 29.88H360.294C360.107 31.1867 359.627 32.3467 358.854 33.36C358.107 34.3467 357.081 35.1333 355.774 35.72C354.467 36.28 352.921 36.56 351.134 36.56ZM365.342 17H369.422V19.8C370.062 18.68 370.902 17.84 371.942 17.28C372.982 16.72 374.275 16.44 375.822 16.44C377.395 16.44 378.742 16.7333 379.862 17.32C380.982 17.9067 381.835 18.76 382.422 19.88C383.009 21 383.302 22.3867 383.302 24.04V36H379.102V24.76C379.102 23.8533 378.955 23.0667 378.662 22.4C378.369 21.7333 377.969 21.2267 377.462 20.88C376.955 20.5333 376.369 20.36 375.702 20.36H373.382C372.689 20.36 372.049 20.5467 371.462 20.92C370.875 21.2933 370.409 21.8133 370.062 22.48C369.715 23.1467 369.542 23.9067 369.542 24.76V36H365.342V17ZM397.736 36.56C395.789 36.56 394.069 36.1333 392.576 35.28C391.082 34.4267 389.909 33.24 389.056 31.72C388.229 30.2 387.816 28.4533 387.816 26.48C387.816 24.5333 388.229 22.8 389.056 21.28C389.909 19.7333 391.096 18.5467 392.616 17.72C394.136 16.8667 395.856 16.44 397.776 16.44C399.376 16.44 400.816 16.72 402.096 17.28C403.402 17.8133 404.469 18.64 405.296 19.76C406.122 20.8533 406.629 22.2133 406.816 23.84H402.696C402.509 22.64 402.029 21.7333 401.256 21.12C400.509 20.5067 399.642 20.2 398.656 20.2H396.656C395.829 20.2 395.056 20.48 394.336 21.04C393.616 21.6 393.042 22.36 392.616 23.32C392.216 24.28 392.016 25.3333 392.016 26.48C392.016 27.6267 392.216 28.6933 392.616 29.68C393.042 30.64 393.616 31.4 394.336 31.96C395.056 32.52 395.829 32.8 396.656 32.8H398.656C399.296 32.8 399.909 32.6667 400.496 32.4C401.082 32.1067 401.576 31.68 401.976 31.12C402.376 30.56 402.629 29.88 402.736 29.08H406.856C406.669 30.7067 406.162 32.08 405.336 33.2C404.509 34.32 403.442 35.16 402.136 35.72C400.829 36.28 399.362 36.56 397.736 36.56ZM420.275 36.56C418.221 36.56 416.448 36.1333 414.955 35.28C413.461 34.4267 412.315 33.24 411.515 31.72C410.741 30.2 410.355 28.4667 410.355 26.52C410.355 24.4933 410.768 22.72 411.595 21.2C412.448 19.68 413.635 18.5067 415.155 17.68C416.675 16.8533 418.421 16.44 420.395 16.44C422.288 16.44 423.941 16.8267 425.355 17.6C426.768 18.3467 427.861 19.4933 428.635 21.04C429.408 22.5867 429.795 24.48 429.795 26.72V27.68H413.915V24.48H425.555C425.475 23.6 425.235 22.8267 424.835 22.16C424.435 21.4933 423.928 20.9867 423.315 20.64C422.728 20.2933 422.101 20.12 421.435 20.12H419.235C418.328 20.12 417.515 20.4 416.795 20.96C416.075 21.52 415.501 22.28 415.075 23.24C414.675 24.2 414.475 25.2933 414.475 26.52C414.475 27.6933 414.675 28.7733 415.075 29.76C415.501 30.72 416.101 31.48 416.875 32.04C417.648 32.6 418.541 32.88 419.555 32.88H421.275C421.941 32.88 422.555 32.7467 423.115 32.48C423.675 32.2133 424.128 31.8533 424.475 31.4C424.848 30.9467 425.115 30.44 425.275 29.88H429.435C429.248 31.1867 428.768 32.3467 427.995 33.36C427.248 34.3467 426.221 35.1333 424.915 35.72C423.608 36.28 422.061 36.56 420.275 36.56Z" fill="#071D49"/>
</svg>
